<svg width="415.001" height="72.001" viewBox="0 0 415.001 72.001" xmlns="http://www.w3.org/2000/svg"><g id="svgGroup" stroke-linecap="round" fill-rule="evenodd" font-size="9pt" stroke="#0c7c59" stroke-width="0.25mm" fill="0c7c59" style="stroke:#0c7c59;stroke-width:0.25mm;fill:0c7c59"><path d="M 303.901 1 L 324.501 1 A 2.591 2.591 0 0 1 326.376 1.776 A 3.269 3.269 0 0 1 326.401 1.8 A 2.711 2.711 0 0 1 327.034 2.758 A 2.634 2.634 0 0 1 327.201 3.7 L 327.201 68.3 A 2.591 2.591 0 0 1 326.426 70.175 A 3.269 3.269 0 0 1 326.401 70.2 A 2.711 2.711 0 0 1 325.444 70.833 A 2.634 2.634 0 0 1 324.501 71 L 303.901 71 A 2.591 2.591 0 0 1 302.026 70.225 A 3.269 3.269 0 0 1 302.001 70.2 A 2.711 2.711 0 0 1 301.368 69.243 A 2.634 2.634 0 0 1 301.201 68.3 L 301.201 47 L 281.201 47 L 281.201 68.3 A 2.591 2.591 0 0 1 280.426 70.175 A 3.269 3.269 0 0 1 280.401 70.2 A 2.711 2.711 0 0 1 279.444 70.833 A 2.634 2.634 0 0 1 278.501 71 L 257.901 71 Q 256.801 71 256.001 70.25 A 2.494 2.494 0 0 1 255.21 68.557 A 3.391 3.391 0 0 1 255.201 68.3 L 255.201 3.7 A 2.591 2.591 0 0 1 255.976 1.825 A 3.269 3.269 0 0 1 256.001 1.8 A 2.711 2.711 0 0 1 256.958 1.167 A 2.634 2.634 0 0 1 257.901 1 L 278.501 1 A 2.591 2.591 0 0 1 280.376 1.776 A 3.269 3.269 0 0 1 280.401 1.8 A 2.711 2.711 0 0 1 281.034 2.758 A 2.634 2.634 0 0 1 281.201 3.7 L 281.201 24.2 L 301.201 24.2 L 301.201 3.7 A 2.591 2.591 0 0 1 301.976 1.825 A 3.269 3.269 0 0 1 302.001 1.8 A 2.711 2.711 0 0 1 302.958 1.167 A 2.634 2.634 0 0 1 303.901 1 Z M 27.001 28 L 27.001 44 A 9.743 9.743 0 0 0 27.341 46.648 A 6.988 6.988 0 0 0 29.751 50.3 A 9.664 9.664 0 0 0 33.586 52.13 Q 35.126 52.5 36.951 52.5 A 22.422 22.422 0 0 0 39.201 52.396 Q 41.948 52.118 43.401 51.1 A 9.317 9.317 0 0 0 45.445 49.114 Q 46.149 48.196 46.732 47.037 A 15.718 15.718 0 0 0 46.751 47 Q 47.535 45.431 48.607 44.774 A 3.178 3.178 0 0 1 50.301 44.3 L 71.901 44.3 A 2.112 2.112 0 0 1 73.431 44.93 A 2.638 2.638 0 0 1 73.451 44.95 A 2.189 2.189 0 0 1 73.976 45.761 A 2.169 2.169 0 0 1 74.101 46.5 Q 74.101 55.8 65.301 63.5 A 26.741 26.741 0 0 1 60.539 66.744 Q 58.244 67.988 55.489 69.001 A 48.815 48.815 0 0 1 53.601 69.65 Q 46.301 72 36.401 72 Q 26.501 72 18.351 68.95 Q 10.201 65.9 5.101 58.95 A 26.008 26.008 0 0 1 0.451 47.624 A 35.063 35.063 0 0 1 0.001 41.9 L 0.001 30.1 A 33.263 33.263 0 0 1 0.977 21.856 A 25.655 25.655 0 0 1 5.101 13 A 29.738 29.738 0 0 1 19.974 2.491 Q 25.046 0.779 31.286 0.244 A 69.257 69.257 0 0 1 37.201 0 A 60.727 60.727 0 0 1 46.107 0.625 A 46.847 46.847 0 0 1 53.601 2.35 A 43.186 43.186 0 0 1 59.03 4.488 Q 62.68 6.237 65.301 8.5 A 31.193 31.193 0 0 1 70.128 13.726 Q 73.232 18.043 73.911 22.801 A 19.085 19.085 0 0 1 74.101 25.5 A 2.112 2.112 0 0 1 73.471 27.03 A 2.638 2.638 0 0 1 73.451 27.05 A 2.189 2.189 0 0 1 72.641 27.576 A 2.169 2.169 0 0 1 71.901 27.7 L 50.301 27.7 A 3.309 3.309 0 0 1 47.859 26.621 Q 47.247 25.993 46.751 25 A 13.102 13.102 0 0 0 45.471 22.92 Q 44.542 21.699 43.401 20.9 A 6.14 6.14 0 0 0 41.825 20.132 Q 39.941 19.5 36.951 19.5 A 14.675 14.675 0 0 0 33.882 19.803 Q 31.856 20.237 30.308 21.289 A 8.929 8.929 0 0 0 29.751 21.7 A 7.15 7.15 0 0 0 27.123 26.355 A 10.617 10.617 0 0 0 27.001 28 Z M 197.001 28 L 197.001 44 A 9.743 9.743 0 0 0 197.341 46.648 A 6.988 6.988 0 0 0 199.751 50.3 A 9.664 9.664 0 0 0 203.586 52.13 Q 205.126 52.5 206.951 52.5 A 22.422 22.422 0 0 0 209.201 52.396 Q 211.948 52.118 213.401 51.1 A 9.317 9.317 0 0 0 215.445 49.114 Q 216.149 48.196 216.732 47.037 A 15.718 15.718 0 0 0 216.751 47 Q 217.535 45.431 218.607 44.774 A 3.178 3.178 0 0 1 220.301 44.3 L 241.901 44.3 A 2.112 2.112 0 0 1 243.431 44.93 A 2.638 2.638 0 0 1 243.451 44.95 A 2.189 2.189 0 0 1 243.976 45.761 A 2.169 2.169 0 0 1 244.101 46.5 Q 244.101 55.8 235.301 63.5 A 26.741 26.741 0 0 1 230.539 66.744 Q 228.244 67.988 225.489 69.001 A 48.815 48.815 0 0 1 223.601 69.65 Q 216.301 72 206.401 72 Q 196.501 72 188.351 68.95 Q 180.201 65.9 175.101 58.95 A 26.008 26.008 0 0 1 170.451 47.624 A 35.063 35.063 0 0 1 170.001 41.9 L 170.001 30.1 A 33.263 33.263 0 0 1 170.977 21.856 A 25.655 25.655 0 0 1 175.101 13 A 29.738 29.738 0 0 1 189.974 2.491 Q 195.046 0.779 201.286 0.244 A 69.257 69.257 0 0 1 207.201 0 A 60.727 60.727 0 0 1 216.107 0.625 A 46.847 46.847 0 0 1 223.601 2.35 A 43.186 43.186 0 0 1 229.03 4.488 Q 232.68 6.237 235.301 8.5 A 31.193 31.193 0 0 1 240.128 13.726 Q 243.232 18.043 243.911 22.801 A 19.085 19.085 0 0 1 244.101 25.5 A 2.112 2.112 0 0 1 243.471 27.03 A 2.638 2.638 0 0 1 243.451 27.05 A 2.189 2.189 0 0 1 242.641 27.576 A 2.169 2.169 0 0 1 241.901 27.7 L 220.301 27.7 A 3.309 3.309 0 0 1 217.859 26.621 Q 217.247 25.993 216.751 25 A 13.102 13.102 0 0 0 215.471 22.92 Q 214.542 21.699 213.401 20.9 A 6.14 6.14 0 0 0 211.825 20.132 Q 209.941 19.5 206.951 19.5 A 14.675 14.675 0 0 0 203.882 19.803 Q 201.856 20.237 200.308 21.289 A 8.929 8.929 0 0 0 199.751 21.7 A 7.15 7.15 0 0 0 197.123 26.355 A 10.617 10.617 0 0 0 197.001 28 Z M 391.901 1 L 412.801 1 A 2.112 2.112 0 0 1 414.331 1.63 A 2.638 2.638 0 0 1 414.351 1.65 A 2.737 2.737 0 0 1 414.707 2.082 Q 415.001 2.53 415.001 3 Q 415.001 3.7 414.701 4.3 L 389.501 46 L 389.501 68.3 A 2.591 2.591 0 0 1 388.726 70.175 A 3.269 3.269 0 0 1 388.701 70.2 A 2.711 2.711 0 0 1 387.744 70.833 A 2.634 2.634 0 0 1 386.801 71 L 365.501 71 A 2.591 2.591 0 0 1 363.626 70.225 A 3.269 3.269 0 0 1 363.601 70.2 A 2.711 2.711 0 0 1 362.968 69.243 A 2.634 2.634 0 0 1 362.801 68.3 L 362.801 46 L 337.701 4.3 Q 337.401 3.7 337.401 3 A 1.604 1.604 0 0 1 337.617 2.21 Q 337.775 1.926 338.051 1.65 A 2.189 2.189 0 0 1 338.861 1.125 A 2.169 2.169 0 0 1 339.601 1 L 360.701 1 A 5.331 5.331 0 0 1 362.431 1.266 Q 363.943 1.782 364.801 3.3 L 376.101 23.1 L 387.701 3.5 A 5.758 5.758 0 0 1 388.866 2.083 A 4.492 4.492 0 0 1 391.901 1 Z M 102.301 71 L 83.401 71 A 2.112 2.112 0 0 1 81.871 70.371 A 2.638 2.638 0 0 1 81.851 70.35 A 3.168 3.168 0 0 1 81.537 69.989 Q 81.386 69.783 81.303 69.583 A 1.253 1.253 0 0 1 81.201 69.1 Q 81.201 68.593 81.272 68.3 A 1.265 1.265 0 0 1 81.301 68.2 L 103.101 4.3 A 5.048 5.048 0 0 1 103.86 2.65 Q 104.747 1.426 106.378 1.11 A 6.436 6.436 0 0 1 107.601 1 L 135.401 1 Q 139.001 1 139.901 4.3 L 161.701 68.2 A 1.487 1.487 0 0 1 161.751 68.405 Q 161.79 68.618 161.798 68.92 A 6.387 6.387 0 0 1 161.801 69.1 A 1.279 1.279 0 0 1 161.676 69.635 Q 161.586 69.832 161.431 70.033 A 3.261 3.261 0 0 1 161.151 70.35 A 2.189 2.189 0 0 1 160.341 70.876 A 2.169 2.169 0 0 1 159.601 71 L 140.701 71 Q 137.501 71 136.201 67.6 L 133.701 60.6 L 109.301 60.6 L 106.801 67.6 A 6.768 6.768 0 0 1 105.948 69.206 Q 104.652 70.965 102.391 71 A 5.947 5.947 0 0 1 102.301 71 Z M 114.401 41.1 L 128.601 41.1 L 121.501 20.3 L 114.401 41.1 Z" vector-effect="non-scaling-stroke"/></g></svg>
